<?xml version="1.0" encoding="utf-8"?>
<!-- Generator: Adobe Illustrator 27.1.1, SVG Export Plug-In . SVG Version: 6.00 Build 0)  -->
<svg version="1.1" xmlns="http://www.w3.org/2000/svg" xmlns:xlink="http://www.w3.org/1999/xlink" x="0px" y="0px"
	 viewBox="0 0 484 484" style="enable-background:new 0 0 484 484;" xml:space="preserve">
<style type="text/css">
	.st0{fill-rule:evenodd;clip-rule:evenodd;fill:#13181B;}
	.st1{fill-rule:evenodd;clip-rule:evenodd;fill:#263238;}
	.st2{fill:#263238;}
	.st3{fill-rule:evenodd;clip-rule:evenodd;fill:#90CAF9;}
	.st4{fill:#FFFDF1;}
</style>
<g id="Layer_1">
	<path class="st0" d="M277.19,257.07l57.39,57.39c5.6,5.6,5.6,14.68,0,20.28c-5.6,5.6-14.68,5.6-20.28,0l-57.39-57.39
		c-5.6-5.6-5.6-14.68,0-20.28C262.5,251.47,271.59,251.47,277.19,257.07z"/>
	<path class="st1" d="M95.33,95.49c23.91-23.91,56.06-37.23,89.88-37.23c33.82,0,65.97,13.32,89.88,37.23
		c23.91,23.91,37.23,56.06,37.23,89.88c0,33.82-13.32,65.97-37.23,89.88c-23.91,23.91-56.06,37.23-89.88,37.23
		c-33.82,0-65.97-13.32-89.88-37.23c-23.91-23.91-37.23-56.06-37.23-89.88C58.1,151.55,71.42,119.4,95.33,95.49L95.33,95.49z
		 M185.2,86.95c-26.2,0-51.07,10.3-69.59,28.83c-18.52,18.52-28.83,43.39-28.83,69.59c0,26.2,10.3,51.07,28.83,69.59
		c18.52,18.52,43.39,28.83,69.59,28.83c26.2,0,51.07-10.3,69.59-28.83c18.52-18.52,28.83-43.39,28.83-69.59
		c0-26.2-10.3-51.07-28.83-69.59C236.27,97.25,211.4,86.95,185.2,86.95z"/>
	<path class="st2" d="M298.66,302.92l4.1-4.1c5.36-5.36,12.42-8.04,19.47-8.04c7.05,0,14.11,2.68,19.47,8.04l77,77
		c5.36,5.36,8.04,12.42,8.04,19.47c0,7.05-2.68,14.11-8.04,19.47l-4.09,4.09c-5.34,5.34-12.41,8.02-19.47,8.02v0.02
		c-7.05,0-14.11-2.68-19.47-8.04l-77-77l0,0c-5.36-5.36-8.04-12.42-8.04-19.47C290.62,315.33,293.3,308.28,298.66,302.92
		L298.66,302.92z"/>
	<path class="st3" d="M283.62,185.36c0-26.2-10.3-51.07-28.83-69.59c-18.52-18.52-43.39-28.83-69.59-28.83
		c-26.2,0-51.07,10.3-69.59,28.83c-18.52,18.52-28.83,43.39-28.83,69.59c0,26.2,10.3,51.07,28.83,69.59
		c18.52,18.52,43.39,28.83,69.59,28.83c26.2,0,51.07-10.3,69.59-28.83C273.32,236.43,283.62,211.56,283.62,185.36z"/>
	<path class="st4" d="M127.05,143.75c4.09-6.69,8.98-12.99,14.68-18.79l17.06,16.78c-3.65,3.72-6.87,7.75-9.7,12.01
		c-2.87,4.33-5.32,8.98-7.37,13.86c-0.55,1.31-0.92,2.22-1.1,2.69c-0.31,0.81-0.64,1.75-1,2.81l0.02,0.01
		c-0.37,1.09-0.87,2.09-1.49,2.99c0.02,1.08-0.1,2.18-0.39,3.27l-0.04-0.01l-0.03,0.1l0.03,0.01c-0.21,0.76-0.4,1.51-0.59,2.27
		c-0.68,2.94-1.21,5.99-1.55,9.06c-0.35,3.19-0.47,6.38-0.29,9.5l0,0c0.79,6.58-3.91,12.55-10.49,13.34
		c-6.58,0.79-12.55-3.91-13.34-10.49l0.01-0.02c-0.05-0.39,0-0.17-0.12-1.42c-0.07-0.73-0.11-1.18-0.11-1.36
		c-0.26-5.02,0.02-9.79,0.66-14.36c0.64-4.57,1.57-8.74,2.64-12.69l0,0c0.36-1.39,0.96-2.66,1.73-3.78
		c-0.03-1.35,0.17-2.72,0.63-4.07l0.04,0.01l0.01-0.02l-0.01,0c0.38-1.12,0.81-2.31,1.29-3.57c0.63-1.66,1.09-2.83,1.38-3.53
		c0.72-1.73,1.5-3.44,2.32-5.14C123.47,149.96,125.18,146.81,127.05,143.75z"/>
</g>
<g id="Master_Layer_4">
</g>
</svg>
